<svg xmlns="http://www.w3.org/2000/svg" viewBox="0 0 24 24"><path fill="currentColor" d="M16.5,23.7L16.5,23.7H9v-3.1v3.1l0-3.6c-4.2,0.9-5.1-1.8-5.1-1.8c-0.7-1.8-1.7-2.2-1.7-2.2 c-1.4-0.9,0.1-0.9,0.1-0.9c1.5,0.1,2.3,1.6,2.3,1.6C5.9,19,8.1,18.4,9,18c0.1-1,0.5-1.7,1-2c-3.4-0.4-6.9-1.7-6.9-7.5 c0-1.7,0.6-3,1.6-4.1C4.5,4,3.9,2.4,4.8,0.4c0,0,1.3-0.4,4.2,1.6c1.2-0.3,2.5-0.5,3.8-0.5c1.3,0,2.6,0.2,3.8,0.5 c2.9-2,4.2-1.6,4.2-1.6c0.8,2.1,0.3,3.6,0.1,4c1,1.1,1.6,2.4,1.6,4.1c0,5.8-3.6,7.1-6.9,7.5c0.5,0.5,1,1.4,1,2.8"/></svg>